<svg xmlns="http://www.w3.org/2000/svg" width="34" height="34" viewBox="0 0 34 34">
  <g id="Gruppe_375" data-name="Gruppe 375" transform="translate(-5256.044 -13334.044)">
    <circle id="Ellipse_194" data-name="Ellipse 194" cx="17" cy="17" r="17" transform="translate(5256.044 13334.044)" fill="#fe8d3c"/>
    <g id="Layer_2" data-name="Layer 2" transform="translate(5258.749 13336.749)">
      <g id="Layer_7" data-name="Layer 7">
        <path id="Pfad_3263" data-name="Pfad 3263" d="M276.023,130.51l-10.364,10.379a4.123,4.123,0,0,0-.614,3.591c.013-.041,11.821-11.821,11.821-11.821A17.418,17.418,0,0,0,276.023,130.51Z" transform="translate(-248.739 -122.565)" fill="#fff"/>
        <path id="Pfad_3264" data-name="Pfad 3264" d="M92.426,12.874C90.588,14.7,79.451,25.807,79.472,25.855c-4.961-4.073-.708-9.216-.708-9.216L89.709,5.828h0A14.366,14.366,0,0,0,79.232,0L70.074,9.159a2.74,2.74,0,0,0-.45,3.675s9.994-9.967,9.98-9.98c4.47,4.47,1.005,8.827,1.005,8.827L67.86,24.426A14.387,14.387,0,0,0,92.426,12.874Z" transform="translate(-63.729)" fill="#fff"/>
        <path id="Pfad_3265" data-name="Pfad 3265" d="M14.333,13.92a3.481,3.481,0,0,0,.88-3.845S5.011,20.33,4.986,20.3c-4.412-4.412-1.3-8.857-1.3-8.857L11.7,3.43A14.384,14.384,0,0,0,2.536,25.72Z" transform="translate(0.001 -3.221)" fill="#fff"/>
      </g>
    </g>
  </g>
</svg>
