<svg xmlns="http://www.w3.org/2000/svg" width="62" height="62" viewBox="0 0 62 62">
  <g id="Gruppe_374" data-name="Gruppe 374" transform="translate(-5256 -13334)">
    <circle id="Ellipse_194" data-name="Ellipse 194" cx="31" cy="31" r="31" transform="translate(5256 13334)" fill="#fe8d3c"/>
    <g id="Layer_2" data-name="Layer 2" transform="translate(5261.001 13339)">
      <g id="Layer_7" data-name="Layer 7">
        <path id="Pfad_3263" data-name="Pfad 3263" d="M285.151,130.51,266.3,149.387a7.5,7.5,0,0,0-1.116,6.532c.024-.075,21.5-21.5,21.5-21.5a31.687,31.687,0,0,0-1.533-3.909Z" transform="translate(-235.528 -116.06)" fill="#fff"/>
        <path id="Pfad_3264" data-name="Pfad 3264" d="M112.542,23.415c-3.343,3.33-23.6,23.523-23.561,23.611-9.023-7.408-1.287-16.763-1.287-16.763L107.6,10.6h0A26.13,26.13,0,0,0,88.543,0L71.886,16.658a4.983,4.983,0,0,0-.819,6.684S89.244,5.214,89.219,5.191c8.131,8.131,1.828,16.054,1.828,16.054L67.86,44.427a26.168,26.168,0,0,0,44.682-21.012Z" transform="translate(-60.347)" fill="#fff"/>
        <path id="Pfad_3265" data-name="Pfad 3265" d="M26.07,22.51a6.332,6.332,0,0,0,1.6-6.993S9.115,34.168,9.07,34.117c-8.025-8.025-2.363-16.11-2.363-16.11L21.288,3.43A26.162,26.162,0,0,0,4.613,43.971Z" transform="translate(0 -3.05)" fill="#fff"/>
      </g>
    </g>
  </g>
</svg>
